name ./resultDataOpenSim/trcMotMarkerGrf/sub06/grf-02-08.mot
datacolumns 19
datarows 25
range 0.48800000 0.58400000
endheader

                time	     ground_force_vx	     ground_force_vy	     ground_force_vz	     ground_force_px	     ground_force_py	     ground_force_pz	   l_ground_force_vx	   l_ground_force_vy	   l_ground_force_vz	   l_ground_force_px	   l_ground_force_py	   l_ground_force_pz	     ground_torque_x	     ground_torque_y	     ground_torque_z	   l_ground_torque_x	   l_ground_torque_y	   l_ground_torque_z	
          0.48800000	         83.47381843	        545.60230810	        -29.07051957	         -0.76747665	          0.00000000	          0.12160500	          0.00000000	          0.00000000	          0.00000000	          0.00000000	          0.00000000	          0.00000000	          0.00000000	          0.30060443	          0.00000000	          0.00000000	          0.00000000	          0.00000000	
          0.49200000	         88.22873532	        561.95307859	        -28.77694881	         -0.76708660	          0.00000000	          0.12125199	          0.00000000	          0.00000000	          0.00000000	          0.00000000	          0.00000000	          0.00000000	          0.00000000	          0.39679248	          0.00000000	          0.00000000	          0.00000000	          0.00000000	
          0.49600000	         93.10901085	        578.09006049	        -28.33678513	         -0.76671094	          0.00000000	          0.12088803	          0.00000000	          0.00000000	          0.00000000	          0.00000000	          0.00000000	          0.00000000	          0.00000000	          0.52109123	          0.00000000	          0.00000000	          0.00000000	          0.00000000	
          0.50000000	         98.17489682	        593.87665007	        -27.88927186	         -0.76636862	          0.00000000	          0.12052437	          0.00000000	          0.00000000	          0.00000000	          0.00000000	          0.00000000	          0.00000000	          0.00000000	          0.65942171	          0.00000000	          0.00000000	          0.00000000	          0.00000000	
          0.50400000	        103.50281866	        609.20256145	        -27.56979912	         -0.76607102	          0.00000000	          0.12017450	          0.00000000	          0.00000000	          0.00000000	          0.00000000	          0.00000000	          0.00000000	          0.00000000	          0.79506149	          0.00000000	          0.00000000	          0.00000000	          0.00000000	
          0.50800000	        109.16175810	        623.98950538	        -27.48200384	         -0.76582257	          0.00000000	          0.11984454	          0.00000000	          0.00000000	          0.00000000	          0.00000000	          0.00000000	          0.00000000	          0.00000000	          0.91230787	          0.00000000	          0.00000000	          0.00000000	          0.00000000	
          0.51200000	        115.19055169	        638.16583952	        -27.68039551	         -0.76561747	          0.00000000	          0.11953808	          0.00000000	          0.00000000	          0.00000000	          0.00000000	          0.00000000	          0.00000000	          0.00000000	          0.99982251	          0.00000000	          0.00000000	          0.00000000	          0.00000000	
          0.51600000	        121.57802971	        651.63785076	        -28.16489600	         -0.76544013	          0.00000000	          0.11925674	          0.00000000	          0.00000000	          0.00000000	          0.00000000	          0.00000000	          0.00000000	          0.00000000	          1.05288969	          0.00000000	          0.00000000	          0.00000000	          0.00000000	
          0.52000000	        128.25654994	        664.28785607	        -28.88521894	         -0.76527019	          0.00000000	          0.11900051	          0.00000000	          0.00000000	          0.00000000	          0.00000000	          0.00000000	          0.00000000	          0.00000000	          1.07401391	          0.00000000	          0.00000000	          0.00000000	          0.00000000	
          0.52400000	        135.11596928	        676.00434904	        -29.75079457	         -0.76508526	          0.00000000	          0.11876409	          0.00000000	          0.00000000	          0.00000000	          0.00000000	          0.00000000	          0.00000000	          0.00000000	          1.07166681	          0.00000000	          0.00000000	          0.00000000	          0.00000000	
          0.52800000	        142.03305607	        686.70960963	        -30.64425880	         -0.76486790	          0.00000000	          0.11853955	          0.00000000	          0.00000000	          0.00000000	          0.00000000	          0.00000000	          0.00000000	          0.00000000	          1.05752870	          0.00000000	          0.00000000	          0.00000000	          0.00000000	
          0.53200000	        148.90416767	        696.34602731	        -31.43999691	         -0.76460575	          0.00000000	          0.11832380	          0.00000000	          0.00000000	          0.00000000	          0.00000000	          0.00000000	          0.00000000	          0.00000000	          1.04307676	          0.00000000	          0.00000000	          0.00000000	          0.00000000	
          0.53600000	        155.66733327	        704.84005384	        -32.02815687	         -0.76428975	          0.00000000	          0.11811689	          0.00000000	          0.00000000	          0.00000000	          0.00000000	          0.00000000	          0.00000000	          0.00000000	          1.03657041	          0.00000000	          0.00000000	          0.00000000	          0.00000000	
          0.54000000	        162.30650045	        712.08762068	        -32.33846681	         -0.76392112	          0.00000000	          0.11791662	          0.00000000	          0.00000000	          0.00000000	          0.00000000	          0.00000000	          0.00000000	          0.00000000	          1.04123370	          0.00000000	          0.00000000	          0.00000000	          0.00000000	
          0.54400000	        168.84497097	        717.97133126	        -32.35314679	         -0.76351226	          0.00000000	          0.11771717	          0.00000000	          0.00000000	          0.00000000	          0.00000000	          0.00000000	          0.00000000	          0.00000000	          1.05489590	          0.00000000	          0.00000000	          0.00000000	          0.00000000	
          0.54800000	        175.33627983	        722.39024591	        -32.10240302	         -0.76307789	          0.00000000	          0.11751143	          0.00000000	          0.00000000	          0.00000000	          0.00000000	          0.00000000	          0.00000000	          0.00000000	          1.07086114	          0.00000000	          0.00000000	          0.00000000	          0.00000000	
          0.55200000	        181.84942468	        725.27084590	        -31.64782739	         -0.76263182	          0.00000000	          0.11729545	          0.00000000	          0.00000000	          0.00000000	          0.00000000	          0.00000000	          0.00000000	          0.00000000	          1.07954457	          0.00000000	          0.00000000	          0.00000000	          0.00000000	
          0.55600000	        188.44819341	        726.54500321	        -31.06290628	         -0.76219449	          0.00000000	          0.11706970	          0.00000000	          0.00000000	          0.00000000	          0.00000000	          0.00000000	          0.00000000	          0.00000000	          1.07040897	          0.00000000	          0.00000000	          0.00000000	          0.00000000	
          0.56000000	        195.17527143	        726.12227438	        -30.41271198	         -0.76179204	          0.00000000	          0.11683492	          0.00000000	          0.00000000	          0.00000000	          0.00000000	          0.00000000	          0.00000000	          0.00000000	          1.03383324	          0.00000000	          0.00000000	          0.00000000	          0.00000000	
          0.56400000	        202.04769117	        723.88543975	        -29.73594136	         -0.76144143	          0.00000000	          0.11659084	          0.00000000	          0.00000000	          0.00000000	          0.00000000	          0.00000000	          0.00000000	          0.00000000	          0.96266239	          0.00000000	          0.00000000	          0.00000000	          0.00000000	
          0.56800000	        209.05679936	        719.70049385	        -29.03775637	         -0.76114159	          0.00000000	          0.11634216	          0.00000000	          0.00000000	          0.00000000	          0.00000000	          0.00000000	          0.00000000	          0.00000000	          0.85328729	          0.00000000	          0.00000000	          0.00000000	          0.00000000	
          0.57200000	        216.16225317	        713.42535536	        -28.29260079	         -0.76088088	          0.00000000	          0.11609879	          0.00000000	          0.00000000	          0.00000000	          0.00000000	          0.00000000	          0.00000000	          0.00000000	          0.70612904	          0.00000000	          0.00000000	          0.00000000	          0.00000000	
          0.57600000	        223.28220603	        704.91657440	        -27.44722156	         -0.76065614	          0.00000000	          0.11586229	          0.00000000	          0.00000000	          0.00000000	          0.00000000	          0.00000000	          0.00000000	          0.00000000	          0.52538281	          0.00000000	          0.00000000	          0.00000000	          0.00000000	
          0.58000000	        230.29128640	        694.02766171	        -26.42331070	         -0.76048657	          0.00000000	          0.11561812	          0.00000000	          0.00000000	          0.00000000	          0.00000000	          0.00000000	          0.00000000	          0.00000000	          0.31797687	          0.00000000	          0.00000000	          0.00000000	          0.00000000	
          0.58400000	        237.02219380	        680.58981912	        -25.12910052	         -0.76040377	          0.00000000	          0.11535023	          0.00000000	          0.00000000	          0.00000000	          0.00000000	          0.00000000	          0.00000000	          0.00000000	          0.09201879	          0.00000000	          0.00000000	          0.00000000	          0.00000000	
